<mxfile host="app.diagrams.net" modified="2024-02-01T03:53:50.038Z" agent="Mozilla/5.0 (X11; Linux x86_64) AppleWebKit/537.36 (KHTML, like Gecko) Chrome/120.0.0.0 Safari/537.36" etag="o5Kqw-foHkU7GCn6xRpe" version="23.1.0" type="github">
  <diagram name="Halaman-1" id="YWeuUIAkzPKz5VKkUi-z">
    <mxGraphModel dx="880" dy="494" grid="1" gridSize="10" guides="1" tooltips="1" connect="1" arrows="1" fold="1" page="1" pageScale="1" pageWidth="827" pageHeight="1169" math="0" shadow="0">
      <root>
        <mxCell id="0" />
        <mxCell id="1" parent="0" />
        <mxCell id="yySKdUYPs3hVA2hb0_W6-5" style="edgeStyle=orthogonalEdgeStyle;rounded=0;orthogonalLoop=1;jettySize=auto;html=1;exitX=1;exitY=0.5;exitDx=0;exitDy=0;entryX=0.5;entryY=0;entryDx=0;entryDy=0;" edge="1" parent="1" source="yySKdUYPs3hVA2hb0_W6-1" target="yySKdUYPs3hVA2hb0_W6-2">
          <mxGeometry relative="1" as="geometry" />
        </mxCell>
        <mxCell id="yySKdUYPs3hVA2hb0_W6-11" value="Personal data" style="edgeLabel;html=1;align=center;verticalAlign=middle;resizable=0;points=[];" vertex="1" connectable="0" parent="yySKdUYPs3hVA2hb0_W6-5">
          <mxGeometry x="-0.0427" y="4" relative="1" as="geometry">
            <mxPoint as="offset" />
          </mxGeometry>
        </mxCell>
        <mxCell id="yySKdUYPs3hVA2hb0_W6-6" style="edgeStyle=orthogonalEdgeStyle;rounded=0;orthogonalLoop=1;jettySize=auto;html=1;exitX=1;exitY=0.25;exitDx=0;exitDy=0;entryX=1;entryY=0.5;entryDx=0;entryDy=0;" edge="1" parent="1" source="yySKdUYPs3hVA2hb0_W6-1" target="yySKdUYPs3hVA2hb0_W6-3">
          <mxGeometry relative="1" as="geometry" />
        </mxCell>
        <mxCell id="yySKdUYPs3hVA2hb0_W6-9" value="Personal data" style="edgeLabel;html=1;align=center;verticalAlign=middle;resizable=0;points=[];" vertex="1" connectable="0" parent="yySKdUYPs3hVA2hb0_W6-6">
          <mxGeometry x="-0.2495" y="-2" relative="1" as="geometry">
            <mxPoint as="offset" />
          </mxGeometry>
        </mxCell>
        <mxCell id="yySKdUYPs3hVA2hb0_W6-7" style="edgeStyle=orthogonalEdgeStyle;rounded=0;orthogonalLoop=1;jettySize=auto;html=1;exitX=1;exitY=0.75;exitDx=0;exitDy=0;entryX=1;entryY=0.5;entryDx=0;entryDy=0;" edge="1" parent="1" source="yySKdUYPs3hVA2hb0_W6-1" target="yySKdUYPs3hVA2hb0_W6-4">
          <mxGeometry relative="1" as="geometry">
            <mxPoint x="260" y="340" as="targetPoint" />
            <Array as="points">
              <mxPoint x="300" y="135" />
              <mxPoint x="300" y="310" />
            </Array>
          </mxGeometry>
        </mxCell>
        <mxCell id="yySKdUYPs3hVA2hb0_W6-12" value="Article" style="edgeLabel;html=1;align=center;verticalAlign=middle;resizable=0;points=[];" vertex="1" connectable="0" parent="yySKdUYPs3hVA2hb0_W6-7">
          <mxGeometry x="0.0358" y="4" relative="1" as="geometry">
            <mxPoint as="offset" />
          </mxGeometry>
        </mxCell>
        <mxCell id="yySKdUYPs3hVA2hb0_W6-1" value="Users" style="rounded=0;whiteSpace=wrap;html=1;" vertex="1" parent="1">
          <mxGeometry x="160" y="90" width="120" height="60" as="geometry" />
        </mxCell>
        <mxCell id="yySKdUYPs3hVA2hb0_W6-24" style="edgeStyle=orthogonalEdgeStyle;rounded=0;orthogonalLoop=1;jettySize=auto;html=1;exitX=0.5;exitY=1;exitDx=0;exitDy=0;entryX=0;entryY=0.5;entryDx=0;entryDy=0;endArrow=none;endFill=0;startArrow=classic;startFill=1;" edge="1" parent="1" source="yySKdUYPs3hVA2hb0_W6-2" target="yySKdUYPs3hVA2hb0_W6-20">
          <mxGeometry relative="1" as="geometry" />
        </mxCell>
        <mxCell id="yySKdUYPs3hVA2hb0_W6-28" value="Personal data" style="edgeLabel;html=1;align=center;verticalAlign=middle;resizable=0;points=[];" vertex="1" connectable="0" parent="yySKdUYPs3hVA2hb0_W6-24">
          <mxGeometry x="-0.3514" relative="1" as="geometry">
            <mxPoint as="offset" />
          </mxGeometry>
        </mxCell>
        <mxCell id="yySKdUYPs3hVA2hb0_W6-2" value="2&lt;br&gt;Login" style="ellipse;whiteSpace=wrap;html=1;aspect=fixed;" vertex="1" parent="1">
          <mxGeometry x="374" y="270" width="80" height="80" as="geometry" />
        </mxCell>
        <mxCell id="yySKdUYPs3hVA2hb0_W6-26" style="edgeStyle=orthogonalEdgeStyle;rounded=0;orthogonalLoop=1;jettySize=auto;html=1;exitX=0.5;exitY=1;exitDx=0;exitDy=0;entryX=1;entryY=0.5;entryDx=0;entryDy=0;" edge="1" parent="1" source="yySKdUYPs3hVA2hb0_W6-3" target="yySKdUYPs3hVA2hb0_W6-20">
          <mxGeometry relative="1" as="geometry" />
        </mxCell>
        <mxCell id="yySKdUYPs3hVA2hb0_W6-27" value="Personal data" style="edgeLabel;html=1;align=center;verticalAlign=middle;resizable=0;points=[];" vertex="1" connectable="0" parent="yySKdUYPs3hVA2hb0_W6-26">
          <mxGeometry x="-0.3333" y="-1" relative="1" as="geometry">
            <mxPoint as="offset" />
          </mxGeometry>
        </mxCell>
        <mxCell id="yySKdUYPs3hVA2hb0_W6-3" value="1&lt;br&gt;Register" style="ellipse;whiteSpace=wrap;html=1;aspect=fixed;" vertex="1" parent="1">
          <mxGeometry x="580" y="270" width="80" height="80" as="geometry" />
        </mxCell>
        <mxCell id="yySKdUYPs3hVA2hb0_W6-14" style="edgeStyle=orthogonalEdgeStyle;rounded=0;orthogonalLoop=1;jettySize=auto;html=1;exitX=1;exitY=1;exitDx=0;exitDy=0;entryX=0.75;entryY=0;entryDx=0;entryDy=0;" edge="1" parent="1" source="yySKdUYPs3hVA2hb0_W6-4" target="yySKdUYPs3hVA2hb0_W6-13">
          <mxGeometry relative="1" as="geometry" />
        </mxCell>
        <mxCell id="yySKdUYPs3hVA2hb0_W6-15" value="Data article" style="edgeLabel;html=1;align=center;verticalAlign=middle;resizable=0;points=[];" vertex="1" connectable="0" parent="yySKdUYPs3hVA2hb0_W6-14">
          <mxGeometry x="-0.3333" y="2" relative="1" as="geometry">
            <mxPoint as="offset" />
          </mxGeometry>
        </mxCell>
        <mxCell id="yySKdUYPs3hVA2hb0_W6-18" style="edgeStyle=orthogonalEdgeStyle;rounded=0;orthogonalLoop=1;jettySize=auto;html=1;exitX=0;exitY=0.5;exitDx=0;exitDy=0;entryX=0;entryY=0.5;entryDx=0;entryDy=0;" edge="1" parent="1" source="yySKdUYPs3hVA2hb0_W6-4" target="yySKdUYPs3hVA2hb0_W6-1">
          <mxGeometry relative="1" as="geometry" />
        </mxCell>
        <mxCell id="yySKdUYPs3hVA2hb0_W6-19" value="Data article" style="edgeLabel;html=1;align=center;verticalAlign=middle;resizable=0;points=[];" vertex="1" connectable="0" parent="yySKdUYPs3hVA2hb0_W6-18">
          <mxGeometry x="-0.08" y="-2" relative="1" as="geometry">
            <mxPoint as="offset" />
          </mxGeometry>
        </mxCell>
        <mxCell id="yySKdUYPs3hVA2hb0_W6-4" value="3&lt;br&gt;Post" style="ellipse;whiteSpace=wrap;html=1;aspect=fixed;" vertex="1" parent="1">
          <mxGeometry x="140" y="270" width="80" height="80" as="geometry" />
        </mxCell>
        <mxCell id="yySKdUYPs3hVA2hb0_W6-16" style="edgeStyle=orthogonalEdgeStyle;rounded=0;orthogonalLoop=1;jettySize=auto;html=1;exitX=0.25;exitY=0;exitDx=0;exitDy=0;entryX=0;entryY=1;entryDx=0;entryDy=0;" edge="1" parent="1" source="yySKdUYPs3hVA2hb0_W6-13" target="yySKdUYPs3hVA2hb0_W6-4">
          <mxGeometry relative="1" as="geometry" />
        </mxCell>
        <mxCell id="yySKdUYPs3hVA2hb0_W6-17" value="Data article" style="edgeLabel;html=1;align=center;verticalAlign=middle;resizable=0;points=[];" vertex="1" connectable="0" parent="yySKdUYPs3hVA2hb0_W6-16">
          <mxGeometry x="-0.0318" y="1" relative="1" as="geometry">
            <mxPoint as="offset" />
          </mxGeometry>
        </mxCell>
        <mxCell id="yySKdUYPs3hVA2hb0_W6-13" value="Post" style="shape=partialRectangle;whiteSpace=wrap;html=1;left=0;right=0;fillColor=none;" vertex="1" parent="1">
          <mxGeometry x="120" y="410" width="120" height="60" as="geometry" />
        </mxCell>
        <mxCell id="yySKdUYPs3hVA2hb0_W6-20" value="Users" style="shape=partialRectangle;whiteSpace=wrap;html=1;left=0;right=0;fillColor=none;" vertex="1" parent="1">
          <mxGeometry x="460" y="400" width="120" height="60" as="geometry" />
        </mxCell>
      </root>
    </mxGraphModel>
  </diagram>
</mxfile>
